<svg width="405" height="45" viewBox="0 0 405 45" fill="none" xmlns="http://www.w3.org/2000/svg">
<g clip-path="url(#clip0_87_637)">
<path d="M241.217 27.8148H161.346V30.8686H241.217V27.8148Z" fill="#FECF05"/>
<path d="M148.984 28.3237H100.52V31.4233H148.984V28.3237Z" fill="#FECF05"/>
<path d="M337.836 27.3059C338.053 27.3415 339.093 27.8607 339.155 28.1406C339.33 28.7565 338.908 30.3597 338.351 30.3597H309.237L308.773 28.1101L309.495 27.3059H337.836Z" fill="#FECF05"/>
<path d="M294.809 27.8148H262.345V30.3596H294.809V27.8148Z" fill="#FECF05"/>
<path d="M253.069 33.4135C255.079 33.7647 257.547 31.8815 258.191 34.6248C257.501 36.7217 254.028 35.3984 253.291 36.4316C252.652 37.7346 253.827 41.8215 251.776 42.0964C248.942 42.6613 250.384 36.8642 249.977 36.4622C242.526 37.3681 242.5 32.5177 249.977 33.4084V24.756L252.234 24.2776L253.069 25.0105V33.4084V33.4135Z" fill="#FECF05"/>
<path d="M92.3007 19.6714C91.8987 19.2694 85.5296 20.8675 88.5338 17.1215L92.2234 16.5515C90.8372 8.2045 94.7741 7.7159 95.645 16.1342L98.6543 16.1647C101.87 19.8903 96.2839 18.7044 95.6089 19.6409C94.5577 21.01 96.5725 25.8197 95.0884 26.2574C91.9193 27.199 92.2955 21.5241 92.2955 19.6714H92.3007Z" fill="#FECF05"/>
<path d="M87.1424 28.3237L86.3695 31.3775H66.2728C65.2525 31.3775 65.2473 28.3237 66.2728 28.3237H87.1424Z" fill="#FECF05"/>
<path d="M49.541 31.0111C51.1689 31.0111 52.4885 29.7077 52.4885 28.0999C52.4885 26.492 51.1689 25.1886 49.541 25.1886C47.9132 25.1886 46.5935 26.492 46.5935 28.0999C46.5935 29.7077 47.9132 31.0111 49.541 31.0111Z" fill="#FECF05"/>
<path d="M153.106 30.3596C154.224 29.5198 157.208 32.2733 154.322 33.3727L152.699 32.0647L153.111 30.3596H153.106Z" fill="#FECF05"/>
<path d="M392.046 1.00276C392.906 1.79674 393.499 3.88858 393.88 5.03883C394.395 6.58099 395.529 12.9125 395.921 13.4571C396.044 13.6301 398.832 14.9433 399.657 15.6202C403.578 18.8317 406.618 22.5065 401.13 26.2117C399.564 27.2653 396.024 27.9778 395.292 28.5886C394.818 28.9805 393.756 33.9276 392.633 35.6326C387.98 42.6716 382.935 38.3454 379.529 32.9606C373.093 36.849 366.94 33.9734 368.033 26.0896C368.234 24.6339 369.496 22.9391 369.496 21.972C369.496 20.6538 367.414 18.8979 367.074 17.2794C365.199 8.45907 373.541 10.1386 379.498 9.93506C381.456 6.73877 387.547 -3.13003 392.051 1.01293L392.046 1.00276ZM388.444 3.46614C385.383 4.32629 382.956 11.8997 381.049 13.0143C378.911 14.2663 373.953 11.3398 370.594 13.34C367.234 15.3402 373.021 19.9311 373.165 21.4834C373.309 23.0358 369.079 27.2195 371.552 30.655C374.464 34.7012 378.978 27.988 380.513 28.3748C382.049 28.7616 383.765 36.5589 387.32 36.4622C391.865 35.3527 390.922 28.5071 392.412 26.7512C393.726 25.1989 400.734 24.7561 400.991 21.9415C401.218 19.4781 394.978 16.1546 392.968 15.1061C392.71 13.2382 391.206 3.88858 389.82 3.43051C389.366 3.28291 388.892 3.34399 388.444 3.47123V3.46614Z" fill="#FECF05"/>
<path d="M354.594 26.1558C356.227 26.1558 357.551 24.8478 357.551 23.2343C357.551 21.6208 356.227 20.3129 354.594 20.3129C352.96 20.3129 351.636 21.6208 351.636 23.2343C351.636 24.8478 352.96 26.1558 354.594 26.1558Z" fill="#FECF05"/>
<path d="M24.3582 15.0042C30.1399 14.6581 38.632 13.2737 37.0397 21.8447C36.6842 23.7686 34.69 25.4125 34.5818 26.5729C34.4684 27.7995 35.8803 29.6013 36.0864 31.1689C37.148 39.2105 30.4233 41.7451 24.2912 37.4851C22.0239 43.3942 15.9124 47.3081 11.486 40.7069C10.2029 38.7932 9.5227 34.3601 8.82704 33.6628C6.71946 31.5252 -1.21616 31.7745 0.159691 25.6415C0.886264 22.3944 7.09048 19.6765 8.24991 17.8391C9.98647 15.0907 9.38357 6.32638 13.439 5.12014C17.8809 3.79684 22.8896 11.5534 24.3582 15.0042ZM32.3505 24.6033C39.5956 13.4468 25.5434 19.5849 22.7247 17.8951C21.8075 15.676 16.7421 7.50718 14.2429 7.95507L11.1614 20.2058C9.11046 20.6995 3.33394 24.6542 3.1742 26.5322C2.91655 29.6013 10.4451 30.1102 11.7746 31.5099C12.8412 32.6347 12.2126 38.4114 15.2219 40.5745C19.4216 43.5978 22.4001 33.5203 23.0442 33.3778C25.2239 32.9095 29.1144 38.8797 32.2578 35.9531C35.2826 32.8485 30.7428 28.0184 30.9386 26.0334C31.0519 24.8934 32.1083 24.9697 32.3505 24.6033Z" fill="#FECF05"/>
</g>
<defs>
<clipPath id="clip0_87_637">
<rect width="404.119" height="44.1475" fill="white"/>
</clipPath>
</defs>
</svg>
